<svg id="Component_126_2" data-name="Component 126 – 2" xmlns="http://www.w3.org/2000/svg" xmlns:xlink="http://www.w3.org/1999/xlink" width="30.801" height="26.16" viewBox="0 0 30.801 26.16">
  <defs>
    <style>
      .cls-1 {
        fill: none;
      }

      .cls-2 {
        clip-path: url(#clip-path);
      }

      .cls-3 {
        fill: #1a1818;
      }
    </style>
    <clipPath id="clip-path">
      <rect id="Rectangle_831" data-name="Rectangle 831" class="cls-1" width="30.801" height="26.16"/>
    </clipPath>
  </defs>
  <g id="Group_847" data-name="Group 847" class="cls-2">
    <path id="Path_678" data-name="Path 678" class="cls-3" d="M6.055,8.848A1.559,1.559,0,0,1,7.76,7.318c1.266,0,7.539.048,10.689.073v4.146a2.711,2.711,0,0,0,.857,2.172,3.275,3.275,0,0,0,2.731.529.721.721,0,1,0-.225-1.425,2.009,2.009,0,0,1-1.568-.2,1.364,1.364,0,0,1-.352-1.075V7.4l.372,0,5.071,4.153L29.117,8.37l-.065-.047S17.685.934,16.767.41a2.743,2.743,0,0,0-2.886,0C12.919.978,2.033,8.148,2.033,8.148c-.217.143-.41.264-.59.379L6.055,12Zm24.24.43c-2.338,2.016-11.424,9.854-12.566,10.805a3.1,3.1,0,0,1-4.2,0C12.384,19.159,3.1,11.723.27,9.458A1.662,1.662,0,0,0,0,10.469V23.994a2.146,2.146,0,0,0,.327,1.131L8.99,18.787l.426.582-8.609,6.3a2.148,2.148,0,0,0,1.36.492l26.466-.043a2.149,2.149,0,0,0,1.2-.365l-8.182-6.745.459-.557,8.247,6.8a2.15,2.15,0,0,0,.442-1.3V10.425a1.469,1.469,0,0,0-.506-1.147" transform="translate(0 0)"/>
  </g>
</svg>
