<svg id="Component_127_2" data-name="Component 127 – 2" xmlns="http://www.w3.org/2000/svg" xmlns:xlink="http://www.w3.org/1999/xlink" width="23.5" height="26.434" viewBox="0 0 23.5 26.434">
  <defs>
    <clipPath id="clip-path">
      <rect id="Rectangle_829" data-name="Rectangle 829" width="23.5" height="26.434" fill="#fff"/>
    </clipPath>
  </defs>
  <g id="Group_844" data-name="Group 844" clip-path="url(#clip-path)">
    <path id="Path_661" data-name="Path 661" d="M2.59,30.1h18.5a.74.74,0,0,0,.74-.74V14.911s-1.485,1.927-1.476,1.905h0V22.86a2.62,2.62,0,0,1-2.617,2.617h-.923a2.62,2.62,0,0,1-2.617-2.617c0-.017,0-.032,0-.048a.635.635,0,0,0-.008-.08.558.558,0,0,0-.017-.07.64.64,0,0,0-.021-.068.665.665,0,0,0-.035-.073c-.007-.014-.012-.029-.02-.043s-.007-.009-.011-.014a.772.772,0,0,0-.049-.065c-.014-.017-.027-.035-.042-.051s-.036-.033-.055-.048-.035-.032-.054-.045-.042-.025-.064-.036a.547.547,0,0,0-.06-.033c-.022-.009-.045-.016-.069-.024a.505.505,0,0,0-.067-.021c-.021,0-.043-.007-.065-.01s-.054-.007-.082-.008h-.016c-.016,0-.03,0-.045,0a.617.617,0,0,0-.085.008c-.022,0-.044.01-.066.016a.552.552,0,0,0-.072.023c-.025.01-.048.021-.071.033s-.03.013-.044.021L2.481,28.621h-1V8.711H13.712l1.21-1.479H.74a.74.74,0,0,0-.74.74V29.36a.74.74,0,0,0,.74.74H2.59Zm15.867-3.2a.589.589,0,0,0,.067-.021A4.086,4.086,0,0,0,20.346,26v2.616H6.026Z" transform="translate(0 -3.666)" fill="#fff"/>
    <path id="Path_662" data-name="Path 662" d="M18.167,29.16a.259.259,0,0,0,.364-.043l.38-.483c1.127.521,3.24-.643,4.008-1.618l1.564-1.987L20.7,22.049l-1.566,1.987c-.769.975-1.4,3.3-.632,4.277l-.381.482a.261.261,0,0,0,.043.364" transform="translate(-9.159 -11.176)" fill="#fff"/>
    <path id="Path_663" data-name="Path 663" d="M35.3,6.339l-.626.794-.737-.578,1.32-1.675A2.4,2.4,0,0,0,35.4,2.106l.634-.807A.8.8,0,1,0,34.769.307l-.635.805a2.4,2.4,0,0,0-2.662.789L25.225,9.8l3.782,2.978,3.841-4.84.736.579-2.943,3.737a.554.554,0,1,0,.87.686l4.656-5.915a.554.554,0,0,0-.87-.685" transform="translate(-12.786 0)" fill="#fff"/>
  </g>
</svg>
